<?xml version="1.0" encoding="utf-8"?>
<svg xmlns="http://www.w3.org/2000/svg" xmlns:xlink="http://www.w3.org/1999/xlink" version= "1.1" width="1300px" height="1000px" viewBox="-290 214 1300 1000">
<g id="layer1">
<g style="fill:rgb(255,211,116); fill-opacity:1.0; stroke-linejoin: miter">
<path d="M-290.001,212.88112C-290.2975,212.88112,-290.58182,212.9989,-290.79147,213.20854C-291.00113,213.41818,-291.1189,213.70251,-291.1189,213.999L-291.1179,1214.0C-291.1179,1214.6174,-290.61737,1215.1179,-290.0,1215.1179L1010.001,1215.1189C1010.2975,1215.1189,1010.5818,1215.001,1010.79144,1214.7914C1011.0011,1214.5818,1011.11884,1214.2975,1011.11884,1214.001L1011.11786,214.0C1011.11786,213.38261,1010.6174,212.88213,1010.0,212.88213L-290.001,212.88112 Z"/>
</g>
<g style="fill:rgb(38,120,95); fill-opacity:1.0; stroke-linejoin: miter">
<path d="M718.3832,992.0187C723.26855,993.3639,725.8939,994.05896,725.9569,994.00916C726.30615,993.56464,742.7633,936.7696,762.54004,867.65924L798.5867,742.04004L545.7588,668.93536L292.8961,595.93726L256.45126,722.54724L220.01059,849.1581L472.6267,921.86847C590.7223,955.8572,690.7438,984.40674,718.3832,992.0187 Z M651.90674,918.62415L487.51187,871.31537L323.1137,823.99695L651.90674,918.62415 Z M526.3672,732.092C526.4498,732.11334,526.5331,732.13727,526.61707,732.16205C526.6985,732.1865,526.7788,732.2067,526.8627,732.2274 Z M695.12805,766.5514L366.64517,672.0077L530.93396,719.2911L695.12805,766.5514 Z"/>
</g>
<g style="fill:rgb(38,120,95); fill-opacity:1.0; stroke-linejoin: miter">
<path d="M727.2803,1002.2232C727.62634,1001.7766,744.084,944.984,763.86536,875.8693L799.911,750.2517L547.0796,677.1484L294.2187,604.14954L257.77536,730.7564L221.33383,857.3673L473.94894,930.07825C612.9189,970.0739,726.85706,1002.5396,727.2803,1002.2232 Z M325.01193,826.0139C326.25684,813.31573,322.68454,802.858,313.92938,793.6472C310.7215,790.30884,307.10785,787.62726,303.71075,786.0934C300.75323,784.9162,298.25726,783.3167,298.09833,782.72687C297.43378,780.4505,318.07806,708.73804,319.58466,708.073C320.30853,707.8477,323.24545,707.9241,326.09775,708.3069C332.81604,709.3662,344.708,706.5371,350.9129,702.51483C357.17575,698.2836,362.90808,691.7057,365.71378,685.3825L367.96915,680.2226L532.2597,727.4988L696.44763,774.7607L695.83936,781.8228C695.49524,785.6747,695.5737,790.7374,696.0073,793.0576C698.1553,803.8794,707.21045,816.24304,716.1924,820.4787C718.33276,821.42065,721.0205,822.74164,722.15186,823.3988L724.3613,824.47235L713.5751,861.9495C701.50806,903.8792,703.64465,899.8865,694.24866,898.60876C687.47534,897.7569,679.14996,899.6391,671.84247,903.67694C664.0155,908.00714,656.0248,917.11176,654.0703,923.89575L653.2252,926.83093L488.83304,879.5208L324.43903,832.20374L325.01193,826.0139 Z"/>
</g>
<g style="fill:rgb(38,120,95); fill-opacity:1.0; stroke-linejoin: miter">
<path d="M503.73785,868.89636C515.6891,870.03613,529.136,867.54126,539.78613,862.164C550.08044,856.8964,556.9336,850.9757,564.07544,841.4047C569.04254,834.823,569.73944,833.16144,573.0902,821.5099C576.359,810.1661,576.6617,807.9513,576.0881,800.4371C574.9767,784.1078,568.8777,769.8498,558.5791,758.76843C539.0567,737.7958,506.65286,731.87067,481.49677,744.58954C452.0918,759.48584,437.96643,792.1615,447.7246,823.04565C455.5228,847.78546,478.3468,866.4155,503.73785,868.89636 Z"/>
</g>
<g style="fill:rgb(42,175,134); fill-opacity:1.0; stroke-linejoin: miter">
<path d="M492.74603,866.7876C471.95618,860.8064,454.3762,844.14496,447.7246,823.04565C437.96643,792.1615,452.0918,759.48584,481.49677,744.58954C496.0964,737.20905,513.1364,736.1005,528.6821,740.5787C539.9243,743.8127,550.385,749.97015,558.5791,758.76843C568.8777,769.8498,574.9767,784.1078,576.0881,800.4371C576.6617,807.9513,576.359,810.1661,573.0902,821.5099C569.73944,833.16144,569.04254,834.823,564.07544,841.4047C556.9336,850.9757,550.08044,856.8964,539.78613,862.164C529.136,867.54126,515.6891,870.03613,503.73785,868.89636C500.00336,868.53235,496.3255,867.8135,492.74603,866.7876 Z M653.2252,926.83093L654.0703,923.89575C656.0248,917.11176,664.0155,908.00714,671.84247,903.67694C679.14996,899.6391,687.47534,897.7569,694.24866,898.60876C703.64465,899.8865,701.50806,903.8792,713.5751,861.9495L724.3613,824.47235L722.15186,823.3988C721.0205,822.74164,718.33276,821.42065,716.1924,820.4787C707.21045,816.24304,698.1553,803.8794,696.0073,793.0576C695.5737,790.7374,695.49524,785.6747,695.83936,781.8228L696.44763,774.7607L367.96915,680.2226L365.71378,685.3825C362.90808,691.7057,357.17575,698.2836,350.9129,702.51483C344.708,706.5371,332.81604,709.3662,326.09775,708.3069C323.24545,707.9241,320.30853,707.8477,319.58466,708.073C318.07806,708.73804,297.43378,780.4505,298.09833,782.72687C298.25726,783.3167,300.75323,784.9162,303.71075,786.0934C307.10785,787.62726,310.7215,790.30884,313.92938,793.6472C322.68454,802.858,326.25684,813.31573,325.01193,826.0139L324.43903,832.20374 Z"/>
</g>
<g style="fill:rgb(38,120,95); fill-opacity:1.0; stroke-linejoin: miter">
<path d="M776.9801,707.08936C781.88367,705.8103,784.5044,705.0985,784.5333,705.02594C784.61194,704.4648,770.47156,647.0488,753.0449,577.30597L721.452,450.4943L465.94113,513.6019L210.45816,576.8168L242.20247,704.68243L273.94855,832.55457L529.0771,769.2113C648.345,739.60034,749.2385,714.31573,776.9801,707.08936 Z M682.71265,676.76526L516.68884,717.9909L350.6588,759.2088L682.71265,676.76526 Z M480.7278,577.99146C480.81082,577.9692,480.892,577.94745,480.97964,577.9283C481.06082,577.90656,481.14252,577.8825,481.22638,577.8611 Z M644.1072,523.45276L312.36246,605.8192L478.284,564.6222L644.1072,523.45276 Z"/>
</g>
<g style="fill:rgb(38,120,95); fill-opacity:1.0; stroke-linejoin: miter">
<path d="M789.7903,711.47705C789.8672,710.91565,775.7239,653.5035,758.2958,583.7579L726.70215,456.94467L471.19397,520.0524L215.70853,583.26697L247.45346,711.13184L279.19724,839.00037L534.32513,775.66095C674.67303,740.81555,789.58044,711.9623,789.7903,711.47705 Z M353.31213,760.0067C348.03918,748.3894,339.716,741.11786,327.52887,737.51715C323.08124,736.2317,318.61124,735.7146,314.90286,736.0853C311.75232,736.54474,308.79224,736.4092,308.35938,735.97656C306.6443,734.33704,288.66772,661.9108,289.63647,660.5829C290.1521,660.02545,292.73367,658.6233,295.39505,657.5281C301.74213,655.0858,310.62875,646.6896,313.9912,640.1055C317.2992,633.3088,318.97525,624.74536,318.24454,617.8662L317.6143,612.27045L483.53412,571.06744L649.3545,529.9009L652.35864,536.32184C653.98694,539.8296,656.58594,544.17664,658.121,545.9661C665.39246,554.2665,679.4186,560.4439,689.3147,559.62164C691.6372,559.36804,694.62537,559.16876,695.9332,559.1711L698.38574,558.9957L707.781,596.8441C718.2958,639.1931,718.15063,634.66675,709.37244,638.25854C703.0853,640.9046,696.8159,646.70013,692.50793,653.8488C687.89343,661.514,685.5244,673.3962,687.22156,680.2494L687.95825,683.214L521.93567,724.4374L355.90906,765.6548L353.31213,760.0067 Z"/>
</g>
<g style="fill:rgb(38,120,95); fill-opacity:1.0; stroke-linejoin: miter">
<path d="M529.5305,707.7837C540.452,702.7959,550.8496,693.91016,557.3833,683.9277C563.6648,674.2202,566.6427,665.6649,568.0399,653.8062C569.0502,645.62274,568.8231,643.83405,565.90344,632.06805C563.0593,620.61163,562.21423,618.5419,557.9591,612.3219C548.83057,598.7337,536.42053,589.4346,521.9602,584.98804C494.56845,576.5872,463.54303,587.6581,448.11685,611.2492C430.09866,638.85565,434.2031,674.21606,458.096,696.08435C477.2208,713.6093,506.3006,718.3313,529.5305,707.7837 Z"/>
</g>
<g style="fill:rgb(42,175,134); fill-opacity:1.0; stroke-linejoin: miter">
<path d="M518.9563,711.4522C497.96365,716.66766,474.40887,711.02875,458.096,696.08435C434.2031,674.21606,430.09866,638.85565,448.11685,611.2492C457.07092,597.5583,471.27365,588.0803,486.97394,584.1848C498.32764,581.367,510.46524,581.46515,521.9602,584.98804C536.42053,589.4346,548.83057,598.7337,557.9591,612.3219C562.21423,618.5419,563.0593,620.61163,565.90344,632.06805C568.8231,643.83405,569.0502,645.62274,568.0399,653.8062C566.6427,665.6649,563.6648,674.2202,557.3833,683.9277C550.8496,693.91016,540.452,702.7959,529.5305,707.7837C526.1149,709.334,522.5712,710.5509,518.9563,711.4522 Z M687.95825,683.214L687.22156,680.2494C685.5244,673.3962,687.89343,661.514,692.50793,653.8488C696.8159,646.70013,703.0853,640.9046,709.37244,638.25854C718.15063,634.66675,718.2958,639.1931,707.781,596.8441L698.38574,558.9957L695.9332,559.1711C694.62537,559.16876,691.6372,559.36804,689.3147,559.62164C679.4186,560.4439,665.39246,554.2665,658.121,545.9661C656.58594,544.17664,653.98694,539.8296,652.35864,536.32184L649.3545,529.9009L317.6143,612.27045L318.24454,617.8662C318.97525,624.74536,317.2992,633.3088,313.9912,640.1055C310.62875,646.6896,301.74213,655.0858,295.39505,657.5281C292.73367,658.6233,290.1521,660.02545,289.63647,660.5829C288.66772,661.9108,306.6443,734.33704,308.35938,735.97656C308.79224,736.4092,311.75232,736.54474,314.90286,736.0853C318.61124,735.7146,323.08124,736.2317,327.52887,737.51715C339.716,741.11786,348.03918,748.3894,353.31213,760.0067L355.90906,765.6548 Z"/>
</g>
<g style="fill:rgb(42,175,134); fill-opacity:1.0; stroke-linejoin: miter">
<path d="M367.16357,449.59317L455.25626,449.594L455.25623,1044.4744L367.16354,1044.4751L367.16357,449.59317"/>
</g>
<g style="fill:rgb(38,120,95); fill-opacity:1.0; stroke-linejoin: miter">
<path d="M371.62,433.20804L415.66632,433.20844L459.71268,433.20886Q459.71268,730.64905,459.71265,1028.0891Q415.66632,1028.0896,371.62,1028.0898Q371.62,730.64905,371.62,433.20804"/>
</g>
<g style="fill:rgb(42,175,134); fill-opacity:1.0; stroke-linejoin: miter">
<path d="M371.44666,468.31082L406.00824,468.3113L440.5698,468.3118Q440.5698,729.2931,440.56976,990.27435Q406.00824,990.27484,371.44666,990.2753Q371.44666,729.2931,371.44666,468.31082"/>
</g>
<g style="fill:rgb(237,238,226); fill-opacity:1.0; stroke-linejoin: miter">
<path d="M396.49487,436.98407L59.980583,439.273L59.981735,1028.5317L396.49484,1026.2396L396.49487,436.98407 Z"/>
</g>
<g style="fill:rgb(255,255,255); fill-opacity:0.54509807; stroke-linejoin: miter">
<path d="M396.49484,479.72015L385.10385,480.3084L371.39572,481.01727L372.47336,501.8676L396.49484,500.6286L396.49484,479.72015 Z"/>
</g>
<g style="fill:rgb(99,112,121); fill-opacity:1.0; stroke-linejoin: miter">
<path d="M163.87599,1016.5807L232.11755,1016.5812L300.359,1016.5814Q300.359,1033.9744,300.359,1051.3674Q232.11755,1051.3679,163.87599,1051.3682Q163.87599,1033.9744,163.87599,1016.5807"/>
</g>
<g style="fill:rgb(99,112,121); fill-opacity:1.0; stroke-linejoin: miter">
<path d="M149.1614,417.425L236.03333,412.95453L322.90527,408.4842Q323.91516,428.1081,324.92505,447.73187Q238.0531,452.20282,151.18143,456.67377Q150.17142,437.0495,149.1614,417.425"/>
</g>
<g style="fill:rgb(0,0,0); fill-opacity:1.0; stroke-linejoin: miter">
<path d="M180.84169,429.3034L282.16064,429.30377Q283.8379,429.3056,285.36743,429.36554Q286.26135,429.36432,289.5172,429.66107Q293.2965,430.0822,294.07214,430.78754Q294.83557,431.17108,292.54492,431.88873Q290.07605,432.4792,285.36414,432.67645Q283.83154,432.7365,282.16064,432.73846L180.84169,432.73798Q175.72011,432.71954,172.33414,432.23602Q168.94803,431.75262,168.82095,431.02094Q168.94803,430.28912,172.33414,429.80524Q175.72012,429.3216,180.84169,429.3034 M127.84488,460.21344L335.15417,460.21405Q390.4331,460.27313,395.49658,460.90826L395.49643,1010.77136L127.844635,1011.4657Q72.60154,1011.4064,67.50211,1010.77136L67.50218,460.90814Q72.60057,460.2724,127.84488,460.21344 M193.72192,1021.75476L269.28027,1021.7555Q270.95142,1021.76086,272.48376,1022.1835Q273.37793,1022.17566,276.635,1024.2543Q280.41565,1027.2025,281.19153,1032.1409Q281.9552,1034.8269,279.66418,1039.852Q277.1953,1043.9861,272.48303,1045.3687Q270.94983,1045.792,269.28027,1045.7966L193.72192,1045.7971Q188.60036,1045.6694,185.21425,1042.2837Q181.82826,1038.8977,181.70131,1033.7764Q181.82826,1028.6545,185.21425,1025.268Q188.60036,1021.8815,193.72192,1021.75476 M357.37256,403.5418L105.625404,403.54218Q94.43943,401.76385,75.47362,414.8681Q59.971306,428.23187,56.78991,450.61224L56.341606,513.48627Q52.988396,514.14716,52.71221,517.6066L52.71209,641.5224Q52.988274,644.9814,56.341606,645.6423L56.341476,1005.0619Q55.30754,1009.26355,60.20262,1026.307Q71.38584,1053.7595,98.92001,1059.0457L357.37253,1059.5417Q368.55856,1061.3237,387.52438,1048.2185Q403.02643,1034.8542,406.20795,1012.4745L406.6563,601.519Q410.4417,601.4003,410.7896,600.16986L410.7896,559.9377Q410.4417,558.7077,406.6563,558.58905L406.65634,458.02155Q406.63718,450.45477,404.90182,443.50616Q393.9115,406.206,357.37256,403.5418 Z"/>
</g>
<g style="fill:rgb(244,175,5); fill-opacity:1.0; stroke-linejoin: miter">
<path d="M217.13577,619.6912L218.06302,708.40625Q213.9913,706.6472,209.9196,704.8883Q206.30284,703.57495,202.68138,701.81116Q198.60954,700.05225,194.07329,696.947Q189.5418,694.2921,185.43703,689.3808Q181.78731,684.91504,179.00993,677.73804Q176.23741,671.0116,176.13863,661.55444Q176.03029,651.1969,179.55763,643.9539Q182.6346,636.7158,188.43715,631.701Q193.78929,626.69086,201.4167,623.90875Q208.59367,621.13165,217.13577,619.6912 Z M241.95114,753.1943Q246.01807,754.5031,250.08994,756.2619Q253.7067,757.5755,257.32797,759.33905Q265.92682,763.3026,274.57715,772.2199Q283.2275,781.1369,283.42996,800.501Q283.8346,839.2291,242.92542,846.41235L241.95114,753.1943 Z M228.11958,550.218Q223.16585,550.2698,219.60097,553.9101Q216.48146,557.0953,216.53322,562.049L216.76389,584.11523Q180.32018,587.6485,159.37115,608.585Q138.41754,629.0711,138.78943,664.6471Q139.00124,684.91174,145.89746,698.351Q152.78902,711.34,164.14128,720.2289Q175.49364,729.1181,189.51512,734.8265Q203.53645,740.53485,218.44913,745.3332L219.52222,848.00806Q206.4581,847.694,196.52269,845.0957Q187.04225,842.94275,179.35374,839.8706Q172.12022,837.2437,166.69272,835.04877Q161.26524,832.85333,156.76187,832.9003Q149.55664,832.97577,144.65956,838.43146Q140.21268,843.8825,140.2833,850.6375Q140.37744,859.644,148.5492,865.86395Q156.71632,871.6332,168.91763,875.55945Q180.66862,879.4901,194.64763,881.1454Q208.17636,882.80554,219.88956,883.1334L220.11545,904.74927Q220.1672,909.70294,223.80753,913.26794Q226.99268,916.3869,231.94638,916.3354Q236.9,916.2836,240.46512,912.6435Q243.58438,909.4582,243.53262,904.50446L243.29733,881.9885Q260.38626,879.55786,274.72617,872.6523Q289.06586,865.7466,299.761,854.8258Q310.00537,843.9099,315.7091,829.43823Q321.4126,814.9666,321.21985,796.503Q321.0127,776.68884,313.6662,763.254Q306.77002,749.81506,295.41772,740.92596Q284.51575,732.0324,270.044,726.3286Q256.0226,720.62024,241.56046,715.8171L240.54831,618.9964Q250.01459,619.7982,256.7931,621.9793Q263.5669,623.70984,268.99442,625.90497Q274.41708,627.65,278.9394,629.40424Q283.45673,630.7083,288.41022,630.65656Q296.9666,630.5671,301.8639,625.1113Q306.31525,620.11066,306.24463,613.3557Q306.1598,605.24976,299.34854,599.91626Q292.9874,594.57806,283.04257,591.07916Q273.09756,587.5799,261.37015,585.901Q250.09775,584.6677,240.18118,583.8707L239.95053,561.80426Q239.8988,556.8507,236.25836,553.2857Q233.07318,550.1662,228.11958,550.218 Z"/>
</g>
<g style="fill:rgb(253,217,8); fill-opacity:1.0; stroke-linejoin: miter">
<path d="M222.51596,617.1648L223.44327,705.87964Q219.37158,704.1206,215.29968,702.36194Q211.683,701.0484,208.0616,699.28455Q203.98976,697.526,199.4536,694.42065Q194.92201,691.76556,190.81721,686.8544Q187.16747,682.3884,184.39012,675.2115Q181.61763,668.48474,181.51875,659.0281Q181.4105,648.67035,184.93773,641.4274Q188.01476,634.1893,193.81734,629.1744Q199.16939,624.16437,206.79695,621.3824Q213.9739,618.6051,222.51596,617.1648 Z M247.33124,750.6679Q251.3982,751.9765,255.47,753.73553Q259.08688,755.0489,262.7083,756.8126Q271.30704,760.77625,279.9573,769.6934Q288.60767,778.61035,288.81,797.9746Q289.21478,836.7028,248.30563,843.88586L247.33124,750.6679 Z M233.49976,547.69165Q228.54604,547.7434,224.98125,551.38367Q221.86165,554.5688,221.91347,559.5224L222.14412,581.58887Q185.70036,585.12213,164.75137,606.0587Q143.79768,626.5445,144.16966,662.1205Q144.38145,682.38525,151.27765,695.82465Q158.16916,708.81354,169.5215,717.70233Q180.87376,726.5915,194.89534,732.3Q208.91661,738.0083,223.82932,742.80664L224.90247,845.48157Q211.83832,845.1676,201.90291,842.56934Q192.42247,840.41626,184.73393,837.34424Q177.50035,834.7174,172.07292,832.52216Q166.6454,830.32697,162.14207,830.37396Q154.93675,830.4494,150.0397,835.9051Q145.5929,841.35614,145.66351,848.1109Q145.75766,857.1174,153.9294,863.33746Q162.09648,869.1069,174.29784,873.03296Q186.04881,876.9636,200.02788,878.6188Q213.55649,880.27893,225.26959,880.6072L225.49557,902.2228Q225.54736,907.17633,229.18777,910.7415Q232.3729,913.86066,237.32663,913.809Q242.28021,913.75726,245.84515,910.1171Q248.96448,906.9318,248.91281,901.9782L248.6773,879.4619Q265.7664,877.03125,280.10632,870.12573Q294.44592,863.2202,305.14117,852.29944Q315.38562,841.38336,321.08923,826.9117Q326.7929,812.4401,326.59998,793.97675Q326.39276,774.1623,319.04633,760.72766Q312.1502,747.28845,300.79785,738.3994Q289.89594,729.5058,275.4242,723.8023Q261.40283,718.0939,246.94058,713.2905L245.92853,616.4699Q255.39474,617.2716,262.17334,619.4527Q268.9471,621.1835,274.37466,623.37866Q279.79733,625.12366,284.31952,626.8778Q288.83688,628.1818,293.79047,628.13Q302.34692,628.0405,307.24402,622.5847Q311.69543,617.5841,311.62488,610.8293Q311.54016,602.7232,304.7287,597.38995Q298.36746,592.0517,288.42267,588.5528Q278.47775,585.0535,266.75034,583.3744Q255.47794,582.1411,245.56134,581.3442L245.33066,559.2778Q245.27899,554.3241,241.63855,550.75916Q238.45346,547.6398,233.49976,547.69165 Z"/>
</g>
<g style="fill:rgb(40,167,63); fill-opacity:1.0; stroke-linejoin: miter">
<path d="M275.96234,542.5448L275.9623,542.54517L275.96228,542.5455L275.9623,542.54517L275.96234,542.5448L275.9623,542.54517L275.96228,542.5455Q275.9623,542.54517,275.96234,542.5448"/>
</g>
<g style="fill:rgb(0,0,0); fill-opacity:0.34509805; stroke-linejoin: miter">
<path d="M856.5043,1054.0476L852.1505,1055.6609Q821.1969,1060.5361,671.0104,1063.459Q519.78467,1066.3796,314.8531,1065.8276Q119.272545,1065.0562,2.0112915,1061.3125Q-35.560516,1060.1023,-59.88408,1058.6753L-80.32738,1057.208Q-97.17453,1055.6938,-97.36395,1054.0476Q-92.24963,1048.9958,42.326843,1045.6411Q176.90327,1042.2864,379.5702,1042.1589Q582.23706,1042.2864,716.8136,1045.6411Q851.39,1048.9958,856.5043,1054.0476"/>
</g>
</g>
</svg>